HIERARCHY
ROOT Hips
{
	OFFSET -285.066589 92.472481 297.089996
	CHANNELS 6 Xposition Yposition Zposition Zrotation Yrotation Xrotation 
	JOINT LeftUpLeg
	{
		OFFSET 0.103457 1.857824 10.548504
		CHANNELS 3 Zrotation Yrotation Xrotation
		JOINT LeftLeg
		{
			OFFSET 43.500000 -0.000038 -0.000017
			CHANNELS 3 Zrotation Yrotation Xrotation
			JOINT LeftFoot
			{
				OFFSET 42.372200 0.000011 0.000019
				CHANNELS 3 Zrotation Yrotation Xrotation
				JOINT LeftToe
				{
					OFFSET 17.300011 0.000002 -0.000008
					CHANNELS 3 Zrotation Yrotation Xrotation
					End Site
					{
						OFFSET 0.000000 0.000000 0.000000
					}
				}
			}
		}
	}
	JOINT RightUpLeg
	{
		OFFSET 0.103457 1.857822 -10.548492
		CHANNELS 3 Zrotation Yrotation Xrotation
		JOINT RightLeg
		{
			OFFSET 43.500038 -0.000027 0.000036
			CHANNELS 3 Zrotation Yrotation Xrotation
			JOINT RightFoot
			{
				OFFSET 42.372261 0.000015 0.000010
				CHANNELS 3 Zrotation Yrotation Xrotation
				JOINT RightToe
				{
					OFFSET 17.299988 -0.000006 0.000008
					CHANNELS 3 Zrotation Yrotation Xrotation
					End Site
					{
						OFFSET 0.000000 0.000000 0.000000
					}
				}
			}
		}
	}
	JOINT Spine
	{
		OFFSET 6.901965 -2.603737 0.000006
		CHANNELS 3 Zrotation Yrotation Xrotation
		JOINT Spine1
		{
			OFFSET 12.588104 -0.000005 0.000007
			CHANNELS 3 Zrotation Yrotation Xrotation
			JOINT Spine2
			{
				OFFSET 12.343202 0.000026 -0.000008
				CHANNELS 3 Zrotation Yrotation Xrotation
				JOINT Neck
				{
					OFFSET 25.832890 -0.000029 -0.000007
					CHANNELS 3 Zrotation Yrotation Xrotation
					JOINT Head
					{
						OFFSET 11.766619 0.000021 0.000012
						CHANNELS 3 Zrotation Yrotation Xrotation
						End Site
						{
							OFFSET 0.000000 0.000000 0.000000
						}
					}
				}
				JOINT LeftShoulder
				{
					OFFSET 19.745909 -1.480377 6.000106
					CHANNELS 3 Zrotation Yrotation Xrotation
					JOINT LeftArm
					{
						OFFSET 11.284110 -0.000009 -0.000020
						CHANNELS 3 Zrotation Yrotation Xrotation
						JOINT LeftForeArm
						{
							OFFSET 33.000053 0.000014 0.000021
							CHANNELS 3 Zrotation Yrotation Xrotation
							JOINT LeftHand
							{
								OFFSET 25.200008 0.000006 -0.000004
								CHANNELS 3 Zrotation Yrotation Xrotation
								End Site
								{
									OFFSET 0.000000 0.000000 0.000000
								}
							}
						}
					}
				}
				JOINT RightShoulder
				{
					OFFSET 19.746101 -1.480381 -6.000081
					CHANNELS 3 Zrotation Yrotation Xrotation
					JOINT RightArm
					{
						OFFSET 11.284131 -0.000022 0.000003
						CHANNELS 3 Zrotation Yrotation Xrotation
						JOINT RightForeArm
						{
							OFFSET 33.000095 0.000014 0.000005
							CHANNELS 3 Zrotation Yrotation Xrotation
							JOINT RightHand
							{
								OFFSET 25.199774 0.000153 0.000423
								CHANNELS 3 Zrotation Yrotation Xrotation
								End Site
								{
									OFFSET 0.000000 0.000000 0.000000
								}
							}
						}
					}
				}
			}
		}
	}
}
MOTION
Frames: 8
Frame Time: 0.033333
-285.066589 92.472481 297.089996 90.318084 4.413777 87.523055 -176.117083 -1.916305 -178.901683 -8.475189 -2.479046 -3.769075 80.942789 2.549793 -0.616114 21.454551 0.003088 -0.000001 -177.626678 2.574998 -178.190251 -13.971487 0.634107 0.751462 83.023586 -0.235014 1.473523 21.454558 -0.003116 -0.000018 6.238899 -0.092287 0.210438 2.464589 -0.190870 0.402977 2.146505 -0.188268 0.404230 20.202429 2.954105 1.444346 -15.728010 -2.503982 2.356950 -81.813324 -81.479560 -100.736165 -14.079739 -8.177857 4.049299 -7.649324 -11.538541 0.778518 10.563269 6.896341 -4.596575 135.313397 87.371548 -43.197829 -1.816502 2.568148 6.459243 -15.301509 17.806192 -1.232907 16.192512 1.886404 2.506881 
-285.072693 92.473503 297.124512 90.318084 4.402246 87.508063 -176.099147 -1.911501 -178.894020 -8.464161 -2.468942 -3.790568 80.952228 2.561643 -0.628535 21.454548 0.003086 -0.000001 -177.606734 2.568504 -178.213993 -13.948996 0.634118 0.759354 83.023579 -0.240181 1.473522 21.454557 -0.003111 -0.000019 6.227755 -0.092281 0.210422 2.442285 -0.190876 0.402975 2.124204 -0.188277 0.404244 20.188910 2.934585 1.431609 -15.667735 -2.514624 2.346322 -81.952544 -81.465647 -100.598175 -14.079743 -8.177857 4.068308 -7.649324 -11.524694 0.778511 10.577780 6.813418 -4.494138 134.968663 87.382592 -43.542825 -1.816502 2.539093 6.399235 -15.298850 17.806189 -1.232919 16.192512 1.837315 2.343969 
-285.079102 92.474770 297.158813 90.318078 4.390407 87.490987 -176.079736 -1.905803 -178.884854 -8.449912 -2.457673 -3.815106 80.960049 2.575318 -0.642112 21.454557 0.003090 0.000001 -177.586202 2.562190 -178.241300 -13.923851 0.634106 0.768082 83.023579 -0.246085 1.473528 21.454558 -0.003107 -0.000016 6.216822 -0.092283 0.210429 2.420460 -0.190873 0.402975 2.102352 -0.188264 0.404241 20.180562 2.912193 1.418554 -15.623470 -2.526259 2.336051 -82.093328 -81.449576 -100.458750 -14.084200 -8.177858 4.090554 -7.642603 -11.523462 0.778524 10.578540 6.788802 -4.472605 134.551776 87.395187 -43.959589 -1.816502 2.507892 6.328013 -15.291108 17.806196 -1.232906 16.192512 1.828143 2.279514 
-285.084686 92.476059 297.194885 90.318071 4.381125 87.464937 -176.052552 -1.899308 -178.885632 -8.430648 -2.444635 -3.839850 80.967487 2.589026 -0.656007 21.454555 0.003091 0.000001 -177.562160 2.556500 -178.278224 -13.896247 0.634112 0.776995 83.023593 -0.252230 1.473528 21.454560 -0.003113 -0.000019 6.206436 -0.092279 0.210433 2.399649 -0.190878 0.402981 2.081561 -0.188272 0.404236 20.179697 2.887186 1.408039 -15.615568 -2.531298 2.326985 -82.196546 -81.430649 -100.356967 -14.089272 -8.172830 4.114758 -7.635735 -11.526255 0.778514 10.538652 6.774501 -4.481242 134.095642 87.408519 -44.415764 -1.816502 2.477838 6.258500 -15.282649 17.806192 -1.232904 16.192514 1.825202 2.299753 
-285.089386 92.477226 297.233398 90.318084 4.375054 87.431701 -176.017786 -1.893198 -178.899812 -8.408209 -2.431283 -3.860333 80.975608 2.600025 -0.668815 21.454551 0.003108 0.000001 -177.533733 2.551308 -178.322169 -13.867063 0.634116 0.785751 83.023593 -0.258385 1.473525 21.454560 -0.003121 -0.000019 6.196488 -0.092277 0.210434 2.379765 -0.190876 0.402972 2.061676 -0.188277 0.404244 20.175185 2.860386 1.400343 -15.610773 -2.525690 2.317389 -82.283951 -81.410090 -100.271337 -14.094859 -8.164458 4.139563 -7.633195 -11.533334 0.778519 10.470582 6.771608 -4.515206 133.630370 87.421995 -44.881118 -1.816502 2.450871 6.202931 -15.276963 17.806190 -1.232915 16.195838 1.831622 2.356560 
-285.093414 92.478142 297.273804 90.314396 4.371579 87.396355 -175.978731 -1.888202 -178.927788 -8.386071 -2.418765 -3.872456 80.985300 2.605779 -0.679266 21.454553 0.003094 0.000002 -177.501836 2.546708 -178.366825 -13.837989 0.634107 0.793626 83.023572 -0.263983 1.473525 21.454555 -0.003114 -0.000018 6.186721 -0.092283 0.210430 2.360241 -0.190864 0.402976 2.042139 -0.188272 0.404244 20.157304 2.836231 1.394471 -15.570572 -2.513976 2.306899 -82.359193 -81.388582 -100.197769 -14.100630 -8.153692 4.163810 -7.639725 -11.545029 0.778528 10.398738 6.780126 -4.561775 133.192145 87.433791 -45.319333 -1.816502 2.428945 6.174070 -15.278308 17.802261 -1.232900 16.202684 1.848800 2.419490 
-285.096497 92.478653 297.316315 90.310599 4.371388 87.361412 -175.936903 -1.885304 -178.976091 -8.367498 -2.407789 -3.870066 80.998004 2.602439 -0.685737 21.454550 0.003089 -0.000001 -177.466442 2.542896 -178.408612 -13.810467 0.634113 0.800029 83.023593 -0.268606 1.473524 21.454557 -0.003103 -0.000019 6.176990 -0.092285 0.210437 2.340767 -0.190860 0.402969 2.022668 -0.188271 0.404241 20.124553 2.817507 1.393013 -15.488846 -2.497007 2.295693 -82.415419 -81.367395 -100.143236 -14.106122 -8.139811 4.185577 -7.656390 -11.561541 0.778518 10.333491 6.801098 -4.609695 132.831798 87.443196 -45.679537 -1.819713 2.411462 6.167252 -15.286609 17.794601 -1.232907 16.216129 1.870925 2.473880 
-285.098389 92.478653 297.360809 90.307272 4.373191 87.329521 -175.893094 -1.883828 -179.039216 -8.353213 -2.399530 -3.854816 81.013932 2.591232 -0.687832 21.454555 0.003087 -0.000001 -177.427592 2.540803 -178.443705 -13.785509 0.634110 0.804233 83.023593 -0.272489 1.473527 21.454558 -0.003114 -0.000020 6.167119 -0.092287 0.210423 2.321036 -0.190876 0.403345 2.002945 -0.188259 0.404593 20.077968 2.806240 1.393544 -15.379269 -2.479507 2.287307 -82.459733 -81.347621 -100.100739 -14.111584 -8.123581 4.203424 -7.682023 -11.582641 0.778516 10.281130 6.836534 -4.650160 132.625348 87.452239 -45.885679 -1.828815 2.397485 6.174936 -15.298779 17.788760 -1.232913 16.238343 1.892035 2.508169 
